<svg xmlns="http://www.w3.org/2000/svg" width="678.474" height="122.674" viewBox="0 0 678.474 122.674">
  <g id="Stars" transform="translate(-88.765 -249.533)">
    <path id="Icon_open-star" data-name="Icon open-star" d="M61.337,0,46,46H0L38.336,76.672,23,122.674,61.337,92.006l38.336,30.669-15.334-46L122.674,46h-46Z" transform="translate(88.765 249.533)" fill="#e04b7c"/>
    <path id="Icon_open-star-2" data-name="Icon open-star" d="M61.337,0,46,46H0L38.336,76.672,23,122.674,61.337,92.006l38.336,30.669-15.334-46L122.674,46h-46Z" transform="translate(366.665 249.533)" fill="#e04b7c"/>
    <path id="Icon_open-star-3" data-name="Icon open-star" d="M61.337,0,46,46H0L38.336,76.672,23,122.674,61.337,92.006l38.336,30.669-15.334-46L122.674,46h-46Z" transform="translate(227.715 249.533)" fill="#e04b7c"/>
    <path id="Icon_open-star-4" data-name="Icon open-star" d="M61.337,0,46,46H0L38.336,76.672,23,122.674,61.337,92.006l38.336,30.669-15.334-46L122.674,46h-46Z" transform="translate(505.615 249.533)" fill="#e04b7c"/>
    <path id="Icon_open-star-5" data-name="Icon open-star" d="M61.337,0,46,46H0L38.336,76.672,23,122.674,61.337,92.006l38.336,30.669-15.334-46L122.674,46h-46Z" transform="translate(644.564 249.533)" fill="#e04b7c"/>
  </g>
</svg>
