<svg id="Layer_1" data-name="Layer 1" xmlns="http://www.w3.org/2000/svg" viewBox="0 0 260.81 8.9"><path id="Path_38_-_Outline" data-name="Path 38 - Outline" d="M164.62,8.9a15.6,15.6,0,0,1-2.55-.23,30.28,30.28,0,0,1-6.71-2.12c-4.75-2-8.5-2.94-11.8-2.83a20.8,20.8,0,0,0-7.38,1.86,26.74,26.74,0,0,1-7.64,2.08A30.67,30.67,0,0,1,116.6,6c-4.07-1.28-7.22-1.77-9.63-1.49a11.92,11.92,0,0,0-4.91,1.84,14.38,14.38,0,0,1-7.5,2.28c-4,.08-9.1-1.14-16.24-3.83-4.2-1.58-7.2-2.21-9.42-2a8.55,8.55,0,0,0-4.39,2,13.94,13.94,0,0,1-6.61,2.9c-3.55.52-8.31,0-14.58-1.73-5.45-1.47-9.57-2-12.6-1.7A13.12,13.12,0,0,0,25,6.39a14.45,14.45,0,0,1-7.54,2.38c-4,.15-9.31-.92-16.8-3.37a1,1,0,0,1,.62-1.9C8.44,5.84,13.71,6.91,17.39,6.77A12.56,12.56,0,0,0,24,4.66a15,15,0,0,1,6.51-2.34c3.32-.36,7.56.2,13.34,1.76,6,1.61,10.49,2.16,13.76,1.67A11.87,11.87,0,0,0,63.35,3.2,10.57,10.57,0,0,1,68.68.84C71.23.56,74.52,1.22,79,2.92c6.79,2.57,11.86,3.78,15.49,3.7a12.35,12.35,0,0,0,6.56-2c3.12-1.77,6.35-3.59,16.12-.51a28.8,28.8,0,0,0,11.16,1.58,24.73,24.73,0,0,0,7.1-1.95,22.92,22.92,0,0,1,8-2c3.6-.12,7.62.83,12.65,3,4.41,1.89,7.8,2.55,10.35,2,2.19-.47,3.58-1.75,5.05-3.1s3.26-3,5.94-3.45c2.92-.49,6.5.4,11.3,2.8,4.32,2.17,7.57,3,9.94,2.66A7.93,7.93,0,0,0,203.13,3C204.49,1.62,205.9.25,208.3,0s5.71.9,10,3.57A19.74,19.74,0,0,0,223.87,6a12.78,12.78,0,0,0,4.57.29c2.89-.35,5.4-1.64,8.06-3C239.59,1.74,242.78.1,246.63,0A15.43,15.43,0,0,1,253,1.32,30.38,30.38,0,0,1,260.43,6a1,1,0,0,1,.16,1.41,1,1,0,0,1-1.4.16l0,0a28.14,28.14,0,0,0-7-4.42A13.61,13.61,0,0,0,246.66,2c-3.38.06-6.23,1.53-9.25,3.08-2.7,1.38-5.49,2.81-8.73,3.21-3.67.44-7.4-.55-11.4-3s-6.75-3.47-8.8-3.28c-1.69.16-2.74,1.18-4,2.37a9.77,9.77,0,0,1-5.47,3.2,11.68,11.68,0,0,1-4.63-.3,31.37,31.37,0,0,1-6.52-2.54c-4.33-2.17-7.62-3-10.06-2.61-2.09.35-3.4,1.55-4.92,2.94a12.45,12.45,0,0,1-6,3.59A11.17,11.17,0,0,1,164.62,8.9Z" style="fill:#73b9e4"/></svg>